<svg width="18" height="18" viewBox="2 2 20 20" fill="white" xmlns="http://www.w3.org/2000/svg">
<path d="M9.4 16.15L12 13.55L14.6 16.15L15.65 15.1L13.05 12.5L15.65 9.9L14.6 8.85L12 11.45L9.4 8.85L8.35 9.9L10.95 12.5L8.35 15.1L9.4 16.15ZM7.3 20.5C6.8 20.5 6.375 20.325 6.025 19.975C5.675 19.625 5.5 19.2 5.5 18.7V6H4.5V4.5H9V3.625H15V4.5H19.5V6H18.5V18.7C18.5 19.2 18.325 19.625 17.975 19.975C17.625 20.325 17.2 20.5 16.7 20.5H7.3ZM17 6H7V18.7C7 18.7667 7.03333 18.8333 7.1 18.9C7.16667 18.9667 7.23333 19 7.3 19H16.7C16.7667 19 16.8333 18.9667 16.9 18.9C16.9667 18.8333 17 18.7667 17 18.7V6ZM7 6V19V18.7V6Z"/>
</svg>
