<svg width="73" height="16" viewBox="0 0 73 16" fill="none" xmlns="http://www.w3.org/2000/svg">
<path d="M5.28516 3.69141V7.24219L8.90625 3.62109C8.5 3.57422 8.21484 3.46094 8.05078 3.28125C7.88672 3.09375 7.80469 2.80078 7.80469 2.40234C7.80469 1.94141 7.91406 1.60938 8.13281 1.40625C8.35938 1.20312 8.73828 1.10156 9.26953 1.10156H12.1406C12.6719 1.10156 13.0469 1.20312 13.2656 1.40625C13.4922 1.60938 13.6055 1.94141 13.6055 2.40234C13.6055 2.83203 13.4922 3.15625 13.2656 3.375C13.0469 3.58594 12.7227 3.69141 12.293 3.69141H12.0234L8.61328 7.07812C9.24609 7.54688 9.82422 8.16406 10.3477 8.92969C10.8711 9.6875 11.4844 10.8555 12.1875 12.4336H12.3398H12.5742C13.0352 12.4336 13.3789 12.5391 13.6055 12.75C13.832 12.9609 13.9453 13.2773 13.9453 13.6992C13.9453 14.1602 13.8281 14.4922 13.5938 14.6953C13.3672 14.8984 12.9883 15 12.457 15H11.0156C10.3828 15 9.87109 14.5742 9.48047 13.7227C9.41016 13.5664 9.35547 13.4414 9.31641 13.3477C8.80078 12.2539 8.32812 11.4102 7.89844 10.8164C7.46875 10.2227 6.96484 9.67969 6.38672 9.1875L5.28516 10.2422V12.4336H5.47266C5.89453 12.4336 6.21484 12.543 6.43359 12.7617C6.66016 12.9727 6.77344 13.2852 6.77344 13.6992C6.77344 14.1602 6.65625 14.4922 6.42188 14.6953C6.19531 14.8984 5.81641 15 5.28516 15H2.26172C1.72266 15 1.33984 14.9023 1.11328 14.707C0.886719 14.5039 0.773438 14.168 0.773438 13.6992C0.773438 13.2852 0.882812 12.9727 1.10156 12.7617C1.32031 12.543 1.64062 12.4336 2.0625 12.4336H2.26172V3.69141H2.0625C1.64844 3.69141 1.33203 3.58203 1.11328 3.36328C0.902344 3.14453 0.796875 2.82422 0.796875 2.40234C0.796875 1.94141 0.90625 1.60938 1.125 1.40625C1.35156 1.20312 1.73047 1.10156 2.26172 1.10156H5.28516C5.80859 1.10156 6.1875 1.20312 6.42188 1.40625C6.65625 1.60938 6.77344 1.94141 6.77344 2.40234C6.77344 2.82422 6.66016 3.14453 6.43359 3.36328C6.21484 3.58203 5.89453 3.69141 5.47266 3.69141H5.28516ZM19.1953 3.69141V9.82031C19.1953 10.9062 19.3828 11.6797 19.7578 12.1406C20.1406 12.5938 20.7734 12.8203 21.6562 12.8203C22.5391 12.8203 23.1719 12.5898 23.5547 12.1289C23.9375 11.668 24.1289 10.8984 24.1289 9.82031V3.69141H23.9414C23.5273 3.69141 23.2109 3.58203 22.9922 3.36328C22.7812 3.14453 22.6758 2.82422 22.6758 2.40234C22.6758 1.94141 22.7852 1.60938 23.0039 1.40625C23.2305 1.20312 23.6055 1.10156 24.1289 1.10156H27.0586C27.5898 1.10156 27.9648 1.20312 28.1836 1.40625C28.4102 1.60938 28.5234 1.94141 28.5234 2.40234C28.5234 2.82422 28.4141 3.14453 28.1953 3.36328C27.9844 3.58203 27.6719 3.69141 27.2578 3.69141H27.0586V9.77344C27.0586 11.7422 26.6328 13.168 25.7812 14.0508C24.9375 14.9258 23.5742 15.3633 21.6914 15.3633C19.7227 15.3633 18.3086 14.9336 17.4492 14.0742C16.5977 13.207 16.1719 11.7734 16.1719 9.77344V3.69141H15.9727C15.5508 3.69141 15.2305 3.58203 15.0117 3.36328C14.793 3.14453 14.6836 2.82422 14.6836 2.40234C14.6836 1.94141 14.7969 1.60938 15.0234 1.40625C15.2578 1.20312 15.6406 1.10156 16.1719 1.10156H19.1953C19.7188 1.10156 20.0977 1.20312 20.332 1.40625C20.5664 1.60938 20.6836 1.94141 20.6836 2.40234C20.6836 2.82422 20.5703 3.14453 20.3438 3.36328C20.125 3.58203 19.8047 3.69141 19.3828 3.69141H19.1953ZM34.7578 3.69141V12.4336H40.0898V10.3477C40.0898 9.80859 40.1836 9.42578 40.3711 9.19922C40.5664 8.97266 40.8867 8.85938 41.332 8.85938C41.7773 8.85938 42.1016 8.97656 42.3047 9.21094C42.5078 9.4375 42.6094 9.81641 42.6094 10.3477V13.9453C42.6094 14.3672 42.5273 14.6484 42.3633 14.7891C42.1992 14.9297 41.8711 15 41.3789 15H30.75C30.2422 15 29.8789 14.8984 29.6602 14.6953C29.4414 14.4922 29.332 14.1602 29.332 13.6992C29.332 13.2461 29.4375 12.9219 29.6484 12.7266C29.8672 12.5312 30.2344 12.4336 30.75 12.4336H31.7812V3.69141H30.75C30.2422 3.69141 29.8789 3.58984 29.6602 3.38672C29.4414 3.18359 29.332 2.85547 29.332 2.40234C29.332 1.94922 29.4453 1.62109 29.6719 1.41797C29.9062 1.20703 30.2734 1.10156 30.7734 1.10156H35.7656C36.2656 1.10156 36.6289 1.20703 36.8555 1.41797C37.0898 1.62109 37.207 1.94922 37.207 2.40234C37.207 2.85547 37.0938 3.18359 36.8672 3.38672C36.6406 3.58984 36.2734 3.69141 35.7656 3.69141H34.7578ZM50.4375 3.43359C49.4297 3.43359 48.6367 3.83984 48.0586 4.65234C47.4883 5.46484 47.2031 6.59375 47.2031 8.03906C47.2031 9.48438 47.4922 10.6172 48.0703 11.4375C48.6484 12.2578 49.4375 12.668 50.4375 12.668C51.4453 12.668 52.2383 12.2617 52.8164 11.4492C53.3945 10.6289 53.6836 9.49219 53.6836 8.03906C53.6836 6.59375 53.3945 5.46484 52.8164 4.65234C52.2461 3.83984 51.4531 3.43359 50.4375 3.43359ZM50.4375 0.714844C52.3594 0.714844 53.9414 1.40234 55.1836 2.77734C56.4258 4.15234 57.0469 5.90625 57.0469 8.03906C57.0469 10.1875 56.4297 11.9453 55.1953 13.3125C53.9609 14.6797 52.375 15.3633 50.4375 15.3633C48.5234 15.3633 46.9414 14.6758 45.6914 13.3008C44.4414 11.918 43.8164 10.1641 43.8164 8.03906C43.8164 5.89844 44.4336 4.14453 45.668 2.77734C46.9102 1.40234 48.5 0.714844 50.4375 0.714844ZM68.4141 1.48828C68.5625 1.20703 68.7188 1.00781 68.8828 0.890625C69.0547 0.773438 69.2656 0.714844 69.5156 0.714844C69.8984 0.714844 70.168 0.816406 70.3242 1.01953C70.4883 1.22266 70.5703 1.57031 70.5703 2.0625L70.5938 5.10938C70.5938 5.64844 70.5039 6.01172 70.3242 6.19922C70.1523 6.38672 69.832 6.48047 69.3633 6.48047C69.0352 6.48047 68.7773 6.40234 68.5898 6.24609C68.4102 6.08203 68.2617 5.79297 68.1445 5.37891C67.9336 4.62891 67.6094 4.09375 67.1719 3.77344C66.7344 3.45312 66.1211 3.29297 65.332 3.29297C64.1289 3.29297 63.207 3.69922 62.5664 4.51172C61.9336 5.32422 61.6172 6.5 61.6172 8.03906C61.6172 9.57812 61.9492 10.7695 62.6133 11.6133C63.2852 12.4492 64.2344 12.8672 65.4609 12.8672C65.7422 12.8672 66.0625 12.8359 66.4219 12.7734C66.7812 12.7031 67.2031 12.5977 67.6875 12.457V10.6055H66.3633C65.832 10.6055 65.4531 10.5078 65.2266 10.3125C65.0078 10.1172 64.8984 9.79297 64.8984 9.33984C64.8984 8.87109 65.0078 8.53906 65.2266 8.34375C65.4531 8.14062 65.832 8.03906 66.3633 8.03906H70.5938C71.1406 8.03906 71.5234 8.13672 71.7422 8.33203C71.9688 8.52734 72.082 8.85547 72.082 9.31641C72.082 9.73047 71.9688 10.0508 71.7422 10.2773C71.5234 10.4961 71.2031 10.6055 70.7812 10.6055H70.5938V13.3945V13.5352C70.5938 13.7852 70.5664 13.9609 70.5117 14.0625C70.457 14.1562 70.3477 14.2539 70.1836 14.3555C69.7383 14.6211 69.0312 14.8555 68.0625 15.0586C67.0938 15.2617 66.1133 15.3633 65.1211 15.3633C63.0742 15.3633 61.418 14.6875 60.1523 13.3359C58.8867 11.9844 58.2539 10.2188 58.2539 8.03906C58.2539 5.9375 58.8945 4.19141 60.1758 2.80078C61.457 1.41016 63.082 0.714844 65.0508 0.714844C65.5977 0.714844 66.1406 0.777344 66.6797 0.902344C67.2266 1.02734 67.8047 1.22266 68.4141 1.48828Z" fill="white"/>
</svg>
